<svg xmlns="http://www.w3.org/2000/svg" width="1200" height="675" viewBox="0 0 1200 675" role="img" aria-labelledby="title desc"><title id="title">Event Console</title><desc id="desc">A dark magenta operational event stream with severity filters.</desc><rect width="1200" height="675" fill="#0e0a0f"/><path d="M0 65h1200" stroke="#332634"/><path d="M26 27l12 7-12 7z" fill="#ff5da2"/><text x="51" y="39" font-family="monospace" font-size="15" font-weight="800" letter-spacing="2" fill="#f1e7ef">EVENT CONSOLE</text><text x="1015" y="38" font-family="monospace" font-size="10" fill="#887687">STREAM</text><circle cx="1084" cy="34" r="4" fill="#c6eb68"/><text x="1097" y="38" font-family="monospace" font-size="10" fill="#c6eb68">CONNECTED</text><rect x="0" y="65" width="215" height="610" fill="#100b11"/><path d="M215 65v610" stroke="#332634"/><g font-family="monospace"><text x="28" y="111" font-size="10" letter-spacing="2" fill="#887687">STREAMS</text><rect x="15" y="132" width="185" height="38" fill="#151016"/><circle cx="31" cy="151" r="4" fill="#ff5da2"/><text x="46" y="155" font-size="12" fill="#f1e7ef">All events</text><text x="171" y="155" font-size="10" fill="#c6eb68">48</text><circle cx="31" cy="197" r="4" fill="#49364a"/><text x="46" y="201" font-size="12" fill="#887687">Releases</text><circle cx="31" cy="240" r="4" fill="#49364a"/><text x="46" y="244" font-size="12" fill="#887687">Workers</text><circle cx="31" cy="283" r="4" fill="#49364a"/><text x="46" y="287" font-size="12" fill="#887687">Security</text><path d="M15 565h185" stroke="#332634"/><text x="27" y="595" font-size="9" fill="#887687">TRESTLE BACKEND</text><text x="27" y="616" font-size="10" font-weight="700" fill="#c6eb68">HEALTHY · 12ms</text><text x="260" y="115" font-size="10" letter-spacing="2" fill="#ff5da2">OPERATIONAL STREAM</text><text x="260" y="168" font-family="sans-serif" font-size="48" font-weight="500" fill="#f1e7ef">Events, as they happen.</text><rect x="1025" y="125" width="130" height="40" fill="#ff5da214" stroke="#ff5da2"/><text x="1090" y="150" text-anchor="middle" font-size="11" font-weight="700" fill="#ff5da2">+ EMIT EVENT</text><g><rect x="260" y="210" width="895" height="72" fill="#151016" stroke="#332634"/><path d="M558 210v72M857 210v72" stroke="#332634"/><g fill="#887687" font-size="9" letter-spacing="1"><text x="279" y="234">EVENTS TODAY</text><text x="577" y="234">ERROR RATE</text><text x="876" y="234">SOURCES</text></g><g fill="#f1e7ef" font-size="21" font-weight="700"><text x="279" y="264">48</text><text x="577" y="264">4.2%</text><text x="876" y="264">7</text></g></g><g font-size="10"><text x="260" y="328" fill="#ff5da2">ALL</text><text x="305" y="328" fill="#887687">DEBUG</text><text x="365" y="328" fill="#887687">INFO</text><text x="415" y="328" fill="#887687">WARN</text><text x="465" y="328" fill="#887687">ERROR</text><text x="520" y="328" fill="#887687">CRITICAL</text><rect x="938" y="307" width="217" height="32" fill="#151016" stroke="#332634"/><text x="954" y="328" fill="#887687">filter source…</text></g><rect x="260" y="357" width="895" height="254" fill="#0b080c" stroke="#332634"/><rect x="260" y="357" width="895" height="39" fill="#151016"/><g font-size="9" letter-spacing="1" fill="#887687"><text x="276" y="381">TIME</text><text x="390" y="381">LEVEL</text><text x="500" y="381">SOURCE</text><text x="655" y="381">MESSAGE</text></g><g font-size="11"><text x="276" y="430" fill="#695b68">14:32:08</text><text x="390" y="430" fill="#ff625f" font-weight="700">ERROR</text><text x="500" y="430" fill="#ff5da2">release-worker</text><text x="655" y="430" fill="#b9aab7">Attestation verification failed</text><path d="M270 451h875" stroke="#241a25"/><text x="276" y="482" fill="#695b68">14:31:54</text><text x="390" y="482" fill="#f39a55" font-weight="700">WARN</text><text x="500" y="482" fill="#ff5da2">installer</text><text x="655" y="482" fill="#b9aab7">Retrying release metadata request</text><path d="M270 503h875" stroke="#241a25"/><text x="276" y="534" fill="#695b68">14:31:22</text><text x="390" y="534" fill="#c6eb68" font-weight="700">INFO</text><text x="500" y="534" fill="#ff5da2">ci-matrix</text><text x="655" y="534" fill="#b9aab7">All platform builds completed</text><path d="M270 555h875" stroke="#241a25"/><text x="276" y="586" fill="#695b68">14:30:47</text><text x="390" y="586" fill="#c6eb68" font-weight="700">INFO</text><text x="500" y="586" fill="#ff5da2">webhook</text><text x="655" y="586" fill="#b9aab7">Delivery acknowledged</text></g></g></svg>
