<svg xmlns="http://www.w3.org/2000/svg" viewBox="0 0 1280 760" role="img" aria-labelledby="title desc"><title id="title">Signal Forge product preview</title><desc id="desc">A dark observability dashboard with 1.11 million events, signal metrics, severity distribution and a recent event table.</desc><rect width="1280" height="760" fill="#101310"/><rect x="1" y="1" width="1278" height="758" rx="14" fill="none" stroke="#303a31"/><rect width="1280" height="62" fill="#121712"/><path d="M0 62h1280" stroke="#303a31"/><rect x="28" y="16" width="32" height="30" rx="6" fill="#19351f" stroke="#8fd36c"/><text x="44" y="36" text-anchor="middle" fill="#a7e780" font-family="system-ui" font-size="11" font-weight="800">SF</text><text x="74" y="37" fill="#f2f5ef" font-family="system-ui" font-size="16" font-weight="750">Signal Forge</text><circle cx="1101" cy="31" r="5" fill="#8fd36c"/><text x="1115" y="36" fill="#b1b9af" font-family="system-ui" font-size="13">Trestle connected</text><rect x="0" y="62" width="220" height="698" fill="#111611"/><path d="M220 62v698" stroke="#303a31"/><g font-family="system-ui" font-size="14"><rect x="18" y="91" width="184" height="54" rx="7" fill="#1d251d"/><text x="34" y="115" fill="#f2f5ef" font-weight="700">Overview</text><text x="34" y="134" fill="#869084" font-size="11">Live posture</text><text x="34" y="179" fill="#b1b9af">Event stream</text><text x="34" y="199" fill="#869084" font-size="11">Search and inspect</text><text x="34" y="244" fill="#b1b9af">Services</text><text x="34" y="264" fill="#869084" font-size="11">Ownership and health</text><text x="34" y="309" fill="#b1b9af">Deployments</text><text x="34" y="329" fill="#869084" font-size="11">Change correlation</text></g><text x="255" y="110" fill="#8fd36c" font-family="system-ui" font-size="10" font-weight="750" letter-spacing="2">OPERATIONAL TELEMETRY</text><text x="255" y="154" fill="#f2f5ef" font-family="system-ui" font-size="36" font-weight="780">See the system, not the noise.</text><text x="255" y="183" fill="#b1b9af" font-family="system-ui" font-size="15">Explore high-volume synthetic signals across services, hosts and deployments.</text><g font-family="system-ui"><g transform="translate(255 216)"><rect width="225" height="92" rx="9" fill="#171c17" stroke="#303a31"/><text x="17" y="28" fill="#9aa397" font-size="13">Total events</text><text x="17" y="62" fill="#f2f5ef" font-size="25" font-weight="750">1,110,000</text><text x="17" y="80" fill="#778075" font-size="10">materialized during ingestion</text></g><g transform="translate(495 216)"><rect width="225" height="92" rx="9" fill="#171c17" stroke="#303a31"/><text x="17" y="28" fill="#9aa397" font-size="13">Error signals</text><text x="17" y="62" fill="#ff8d88" font-size="25" font-weight="750">83,149</text><text x="17" y="80" fill="#778075" font-size="10">7.49% error + critical</text></g><g transform="translate(735 216)"><rect width="225" height="92" rx="9" fill="#171c17" stroke="#303a31"/><text x="17" y="28" fill="#9aa397" font-size="13">Services</text><text x="17" y="62" fill="#f2f5ef" font-size="25" font-weight="750">18</text><text x="17" y="80" fill="#778075" font-size="10">independently owned</text></g><g transform="translate(975 216)"><rect width="225" height="92" rx="9" fill="#171c17" stroke="#303a31"/><text x="17" y="28" fill="#9aa397" font-size="13">Ingestion</text><text x="17" y="62" fill="#f2f5ef" font-size="25" font-weight="750">5,307/s</text><text x="17" y="80" fill="#778075" font-size="10">last seed run</text></g></g><rect x="255" y="329" width="462" height="190" rx="9" fill="#171c17" stroke="#303a31"/><text x="278" y="358" fill="#8fd36c" font-family="system-ui" font-size="10" font-weight="750" letter-spacing="2">SEVERITY MIX</text><text x="278" y="388" fill="#f2f5ef" font-family="system-ui" font-size="20" font-weight="700">Signal distribution</text><g font-family="system-ui" font-size="11"><text x="278" y="424" fill="#9aa397">debug</text><rect x="340" y="414" width="265" height="10" rx="5" fill="#252d25"/><rect x="340" y="414" width="54" height="10" rx="5" fill="#8fd36c"/><text x="625" y="424" fill="#b1b9af">132,401</text><text x="278" y="453" fill="#9aa397">info</text><rect x="340" y="443" width="265" height="10" rx="5" fill="#252d25"/><rect x="340" y="443" width="265" height="10" rx="5" fill="#8fd36c"/><text x="625" y="453" fill="#b1b9af">652,750</text><text x="278" y="482" fill="#9aa397">warn</text><rect x="340" y="472" width="265" height="10" rx="5" fill="#252d25"/><rect x="340" y="472" width="98" height="10" rx="5" fill="#d6b85d"/><text x="625" y="482" fill="#b1b9af">241,700</text><text x="278" y="511" fill="#9aa397">error</text><rect x="340" y="501" width="265" height="10" rx="5" fill="#252d25"/><rect x="340" y="501" width="30" height="10" rx="5" fill="#ff8d88"/><text x="625" y="511" fill="#b1b9af">71,935</text></g><rect x="735" y="329" width="465" height="190" rx="9" fill="#171c17" stroke="#303a31"/><text x="758" y="358" fill="#8fd36c" font-family="system-ui" font-size="10" font-weight="750" letter-spacing="2">ENVIRONMENT</text><text x="758" y="388" fill="#f2f5ef" font-family="system-ui" font-size="20" font-weight="700">Traffic split</text><g font-family="system-ui"><text x="758" y="432" fill="#b1b9af" font-size="13">production</text><text x="1165" y="432" text-anchor="end" fill="#f2f5ef" font-size="15" font-weight="700">777,000</text><path d="M758 448h407" stroke="#303a31"/><text x="758" y="476" fill="#b1b9af" font-size="13">staging</text><text x="1165" y="476" text-anchor="end" fill="#f2f5ef" font-size="15" font-weight="700">222,000</text><path d="M758 492h407" stroke="#303a31"/><text x="758" y="514" fill="#b1b9af" font-size="13">development</text><text x="1165" y="514" text-anchor="end" fill="#f2f5ef" font-size="15" font-weight="700">111,000</text></g><rect x="255" y="540" width="945" height="180" rx="9" fill="#171c17" stroke="#303a31"/><text x="278" y="569" fill="#8fd36c" font-family="system-ui" font-size="10" font-weight="750" letter-spacing="2">LATEST SAMPLE</text><text x="278" y="599" fill="#f2f5ef" font-family="system-ui" font-size="20" font-weight="700">Recent signals</text><g font-family="system-ui" font-size="11"><text x="278" y="629" fill="#778075">TIME</text><text x="430" y="629" fill="#778075">SEVERITY</text><text x="540" y="629" fill="#778075">SERVICE</text><text x="715" y="629" fill="#778075">MESSAGE</text><text x="1158" y="629" text-anchor="end" fill="#778075">DURATION</text><path d="M278 640h880" stroke="#303a31"/><text x="278" y="666" fill="#b1b9af">12:08:41</text><text x="430" y="666" fill="#ff8d88" font-weight="700">critical</text><text x="540" y="666" fill="#f2f5ef">checkout-api</text><text x="715" y="666" fill="#b1b9af">Payment authorization latency exceeded SLO</text><text x="1158" y="666" text-anchor="end" fill="#f2f5ef">842.3 ms</text><path d="M278 678h880" stroke="#252d25"/><text x="278" y="704" fill="#b1b9af">12:07:54</text><text x="430" y="704" fill="#d6b85d" font-weight="700">warn</text><text x="540" y="704" fill="#f2f5ef">edge-gateway</text><text x="715" y="704" fill="#b1b9af">Upstream retry budget approaching threshold</text><text x="1158" y="704" text-anchor="end" fill="#f2f5ef">318.1 ms</text></g></svg>
